<?xml version="1.0" ?><!DOCTYPE svg  PUBLIC '-//W3C//DTD SVG 1.1//EN'  'http://www.w3.org/Graphics/SVG/1.1/DTD/svg11.dtd'><svg enable-background="new 0 0 128 128" id="Слой_1" version="1.1" viewBox="0 0 128 128" xml:space="preserve" xmlns="http://www.w3.org/2000/svg" xmlns:xlink="http://www.w3.org/1999/xlink"><circle cx="64" cy="64" fill="#D9B587" r="62"/><g><polygon fill="#A5A4AA" points="90.8,86.1 55,86.1 55,91.7 90.8,95.5  "/><polygon fill="#FFFFFF" points="84.5,94.8 90.8,95.5 90.8,86.1 84.5,86.1  "/><rect fill="#A5A4AA" height="107.3" width="17.9" x="90.8" y="17.3"/><rect fill="#FDE474" height="19" transform="matrix(0.3332 0.9429 -0.9429 0.3332 136.9834 -44.1661)" width="4.5" x="97.5" y="65.3"/><rect fill="#FDE474" height="19" transform="matrix(0.3332 0.9429 -0.9429 0.3332 128.5508 -50.13)" width="4.5" x="97.5" y="56.3"/><rect fill="#FDE474" height="19" transform="matrix(0.3332 0.9429 -0.9429 0.3332 145.4158 -38.2024)" width="4.5" x="97.5" y="74.2"/><rect fill="#FDE474" height="19" transform="matrix(0.3332 0.9429 -0.9429 0.3332 153.8484 -32.2385)" width="4.5" x="97.5" y="83.2"/><rect fill="#FFFFFF" height="107.3" width="6.3" x="90.8" y="17.3"/><path d="M45.2,48.5l0.1,0l-7-22c-1.1-4.2-4.6-7.4-8.9-8c-5.2-0.8-10.4-1.2-15.6-1.2H1.3l0,26.3   c12.7,0,25.3,0.8,37.9,2.5C41.5,46.5,43.5,47.3,45.2,48.5z" fill="#CEEAE8"/><path d="M38.2,48.1c-0.9,0-1.8-0.6-2.1-1.6l-6.4-20.1c-0.4-1.2,0.3-2.4,1.5-2.8c1.2-0.4,2.4,0.3,2.8,1.5l6.4,20.1   c0.4,1.2-0.3,2.4-1.5,2.8C38.7,48.1,38.4,48.1,38.2,48.1z" fill="#FFFFFF"/><path d="M1.3,84.6l42.9,0.1c4.6,0,6.6-1.1,6.6-5.7l0-18.1l0-1.5c0-6.7-5-12.4-11.6-13.3l0,0   C26.7,44.5,14,43.7,1.3,43.7" fill="#46B8BF"/><path d="M38.5,84.7l4,0c0.1,0,0.2,0,0.3,0" fill="#E97867"/><polyline fill="#FFFFFF" points="1.3,60.9 18.1,60.9 18.1,69.7 1.3,69.7  "/><path d="M50.7,63.2l2.7-2.2c0.9,0,1.7,0.7,1.7,1.7v29.7c0,0.9-0.7,1.7-1.7,1.7H40.1c-0.9,0-1.7-0.7-1.7-1.7v-7.6   h8.9l3.4-3.4L50.7,63.2z" fill="#888599"/><path d="M53.3,88.6H40.1c-0.9,0-1.7-0.7-1.7-1.7v5.4c0,0.9,0.7,1.7,1.7,1.7h13.2c0.9,0,1.7-0.7,1.7-1.7v-5.4   C55,87.8,54.3,88.6,53.3,88.6z" fill="#FFFFFF"/><path d="M1.3,76.4l49.5,0v4.1c0,2.3-1.8,4.1-4.1,4.1l-45.4,0" fill="#E1E1E5"/><path d="M4.8,43.7c-1.1,0-2.3,0-3.4,0" fill="#FFFFFF"/><path d="M50.9,60.9H27.8c-0.9,0-1.7,0.7-1.7,1.7v5.5c0,0.9,0.7,1.7,1.7,1.7h23.1V60.9z" fill="#E1E1E5"/><path d="M108.7,16H90.8c-0.7,0-1.3,0.6-1.3,1.3v67.5H56.3V62.6c0-1.6-1.3-3-3-3h-1.1v-0.2c0-4.6-2.2-8.9-5.7-11.6   l-6.9-21.6c-1.3-4.7-5.2-8.3-10-9C24.5,16.4,19.2,16,13.9,16H1.3C0.6,16,0,16.6,0,17.3s0.6,1.3,1.3,1.3h12.6   c5.1,0,10.3,0.4,15.4,1.2c3.8,0.6,6.9,3.4,7.9,7.1l6,18.8c-1.2-0.5-2.4-0.8-3.7-1C26.9,43.2,14,42.3,1.3,42.3   c-0.7,0-1.3,0.6-1.3,1.3S0.6,45,1.3,45c12.6,0,25.3,0.8,37.7,2.5c6,0.8,10.4,5.9,10.4,11.9v0.2H27.8c-1.6,0-3,1.3-3,3v5.5   c0,1.7,1.3,3,3,3h23.1c0.7,0,1.3-0.6,1.3-1.3v-7.5h1.1c0.2,0,0.3,0.1,0.3,0.3v29.7c0,0.2-0.1,0.3-0.3,0.3H40.1   c-0.2,0-0.3-0.1-0.3-0.3V86l6.9,0c3,0,5.5-2.5,5.5-5.5v-4.1c0-0.7-0.6-1.3-1.3-1.3L1.5,75c0,0,0,0,0,0c-0.7,0-1.3,0.6-1.3,1.3   c0,0.7,0.6,1.3,1.3,1.3l48.1,0v2.8c0,1.5-1.2,2.8-2.8,2.8l-45.4,0c0,0,0,0,0,0c-0.7,0-1.3,0.6-1.3,1.3C0,85.4,0.6,86,1.3,86l35.8,0   v6.3c0,1.6,1.3,3,3,3h13.2c1.2,0,2.3-0.7,2.7-1.8l33.3,2.9v28.3c0,0.7,0.6,1.3,1.3,1.3h17.9c0.7,0,1.3-0.6,1.3-1.3V17.3   C110,16.6,109.4,16,108.7,16z M49.5,68.4H27.8c-0.2,0-0.3-0.1-0.3-0.3v-5.5c0-0.2,0.1-0.3,0.3-0.3h21.8V68.4z M56.3,90.8v-3.3h33.1   v6.1L56.3,90.8z M107.3,123.3H92.1V95.1v-8.9V18.7h15.2V123.3z" fill="#62345B"/><path d="M18.1,71.1c0.7,0,1.3-0.6,1.3-1.3v-8.8c0-0.7-0.6-1.3-1.3-1.3H1.3c-0.7,0-1.3,0.6-1.3,1.3s0.6,1.3,1.3,1.3   h15.4v7.5C16.7,70.5,17.3,71.1,18.1,71.1z" fill="#62345B"/></g></svg>